<?xml version="1.0" encoding="UTF-8"?>
<!DOCTYPE svg PUBLIC "-//W3C//DTD SVG 1.1//EN" "http://www.w3.org/Graphics/SVG/1.1/DTD/svg11.dtd">
<!-- Creator: CorelDRAW 2018 (64-Bit) -->
<svg xmlns="http://www.w3.org/2000/svg" xml:space="preserve" width="100mm" height="100mm" version="1.1" style="shape-rendering:geometricPrecision; text-rendering:geometricPrecision; image-rendering:optimizeQuality; fill-rule:evenodd; clip-rule:evenodd"
viewBox="0 0 10000 10000"
 xmlns:xlink="http://www.w3.org/1999/xlink">
 <defs>
  <style type="text/css">
   <![CDATA[
    .str0 {stroke:#01A3E0;stroke-width:20;stroke-miterlimit:22.9256}
    .fil0 {fill:#01A3E0}
    .fil1 {fill:#FEFFFF}
   ]]>
  </style>
 </defs>
 <g id="Слой_x0020_1">
  <metadata id="CorelCorpID_0Corel-Layer"/>
  <rect class="fil0 str0" x="1253.3" y="1448.96" width="7355.31" height="7220.59" rx="1527.44" ry="1527.44"/>
  <g id="_1272820211216">
   <path class="fil1" d="M2390.34 5548.53c54.52,487.3 335.46,775.88 836,819.52 506.91,44.22 1147.6,11.4 1668.49,11.4 819.63,0 1235.44,130.62 1241.9,-430.03 5.86,-507.42 31.82,-1162.17 -9.96,-1651.05 -42.25,-495.01 -342.09,-794.22 -831.86,-838.33 -310.75,-27.99 -2050.54,-24.66 -2514.81,-11.18 -306.14,8.85 -398.72,128.59 -403.55,431.29 -7.63,477.06 -36.78,1216.21 13.79,1668.38z"/>
   <path class="fil1" d="M7317.85 3500.71c-107.95,47.61 -458.09,352.89 -571.64,446.13 -200.58,164.71 -392.34,277.1 -401.3,637.89 -26.96,1087.23 -47.74,937.31 881.27,1689.44 48.36,39.12 87.48,78.23 180.14,71.63 302.7,-21.64 194.17,-575.13 194.56,-1102.6l-2.61 -1551.4c-13.87,-147.31 -125.2,-259.53 -280.42,-191.09z"/>
  </g>
 </g>
</svg>
